<?xml version="1.0" standalone="no"?><!DOCTYPE svg PUBLIC "-//W3C//DTD SVG 1.1//EN" "http://www.w3.org/Graphics/SVG/1.1/DTD/svg11.dtd"><svg t="1735116245413" class="icon" viewBox="0 0 1024 1024" version="1.1" xmlns="http://www.w3.org/2000/svg" p-id="14858" xmlns:xlink="http://www.w3.org/1999/xlink" width="200" height="200"><path d="M899.393291 832.023129l-767.970841-0.78397a95.980356 95.980356 0 1 0-0.223991 191.976711l767.970841 0.78397a95.996355 95.996355 0 1 0 0.223991-191.976711z" fill="#DAE2E5" p-id="14859"></path><path d="M931.232082 960.066267L99.27967 959.2023c-24.335076-0.047998-46.286243-9.407643-63.181601-24.335076 3.919851 49.342127 44.734301 88.300647 95.10039 88.348646l767.970841 0.78397c50.366088 0.063998 91.260535-38.798527 95.308381-88.140653-16.911358 14.879435-38.878524 24.207081-63.245599 24.20708z" opacity=".1" p-id="14860"></path><path d="M131.42245 831.239159s0.623976-639.975701 672.614462-639.287727c-96.508336 511.884564 95.356379 640.071697 95.356379 640.071697l-767.970841-0.78397z" fill="#EF4D4D" p-id="14861"></path><path d="M986.685977 169.584281L965.950764 148.833069l7.64771-28.366923a32.030784 32.030784 0 0 0-22.591143-39.214511l-28.334924-7.64771-7.551713-28.334924a31.998785 31.998785 0 0 0-39.182512-22.65514l-28.350924 7.551714-20.735213-20.799211a31.966786 31.966786 0 0 0-45.230282-0.031998l-20.783211 20.735212-28.334924-7.663709A31.998785 31.998785 0 0 0 693.273117 44.997012l-7.615711 28.334924-28.366922 7.567712a31.998785 31.998785 0 0 0-22.67114 39.166513l7.567713 28.366923-20.767212 20.751212a31.918788 31.918788 0 0 0-0.047998 45.214284l20.687215 20.751212-7.63171 28.366923a32.014784 32.014784 0 0 0 22.591142 39.198511l28.318925 7.631711 7.583712 28.366922a32.078782 32.078782 0 0 0 39.150513 22.687139l28.334924-7.599711 20.751212 20.815209c12.511525 12.463527 32.734757 12.479526 45.262282 0.047998l20.767211-20.719213 28.334925 7.63171a32.030784 32.030784 0 0 0 39.198511-22.591142l7.63171-28.318925 28.350924-7.599711a32.030784 32.030784 0 0 0 22.671139-39.150514l-7.567712-28.318924 20.79921-20.767212a31.998785 31.998785 0 0 0 0.079997-45.246282z" fill="#DAE2E5" p-id="14862"></path><path d="M867.730493 799.992345l-734.612107-0.767971c-1.647937 20.111236-1.711935 32.014784-1.711935 32.014785l767.970841 0.78397c0.015999 0-13.583484-9.167652-31.646799-32.030784z" opacity=".15" p-id="14863"></path><path d="M961.998914 190.175499l-10.207612 37.774566a42.718378 42.718378 0 0 1-52.270016 30.126856l-37.774565-10.143615-27.66295 27.630951a42.814374 42.814374 0 0 1-60.365708-0.063997l-27.66295-27.742947-37.758566 10.111616a42.782376 42.782376 0 0 1-52.222017-30.238852l-10.079618-37.838563-31.886789-8.575675c-3.967849 11.199575-1.711935 24.175082 7.295723 33.166741l20.687215 20.751212-7.631711 28.366923a32.014784 32.014784 0 0 0 22.591143 39.198512l28.318924 7.63171 7.583712 28.366923a32.078782 32.078782 0 0 0 39.150514 22.687139l28.334924-7.599712 20.751212 20.81521c12.511525 12.463527 32.734757 12.479526 45.262282 0.047998l20.767211-20.719213 28.334924 7.63171a32.030784 32.030784 0 0 0 39.198512-22.591142l7.63171-28.318925 28.350924-7.599711a32.030784 32.030784 0 0 0 22.671139-39.150514l-7.567713-28.318925 20.799211-20.767211a31.838791 31.838791 0 0 0 7.35972-33.118743l-31.998785 8.479678z" opacity=".1" p-id="14864"></path><path d="M178.476663 725.915158l45.294281-45.214283 45.214283 45.29428a31.950787 31.950787 0 0 0 45.214283 0.063997l45.31028-45.214283 45.198284 45.29428a32.046783 32.046783 0 0 0 45.29428 0.063998l45.118287-45.054289 44.814298 44.910294a31.998785 31.998785 0 0 0 45.246282 0.047999l45.294281-45.198284 45.214283 45.262281a31.998785 31.998785 0 0 0 45.262281 0.095997l45.278281-45.230283 45.198284 45.29428c4.783818 4.783818 10.735592 7.135729 16.879359 8.287685-14.239459-30.718834-27.710948-69.949344-37.278584-119.371467l-2.095921-2.079921a31.998785 31.998785 0 0 0-45.262281-0.047998l-45.278281 45.230282-45.230283-45.326279a31.966786 31.966786 0 0 0-45.230282-0.047998l-45.294281 45.214283-45.230282-45.310279c-0.543979-0.543979-1.247953-0.719973-1.791932-1.215954v-0.127995c-0.335987-0.287989-0.751971-0.351987-1.087959-0.623977a30.766832 30.766832 0 0 0-20.319228-6.895738c-0.623976 0-1.167956 0.207992-1.807932 0.255991-3.071883 0.287989-6.095769 0.79997-9.039657 1.951925-1.071959 0.415984-2.015923 1.215954-3.055884 1.791932-2.031923 1.071959-4.143843 1.83993-5.919775 3.359873l-0.015999 0.623976c-0.479982 0.431984-1.119957 0.575978-1.631938 1.071959l-45.31028 45.230283-45.230283-45.326279a31.982786 31.982786 0 0 0-45.214283-0.063997l-45.310279 45.246282-45.198284-45.326279a31.966786 31.966786 0 0 0-45.230283-0.047999l-41.774414 41.726416a808.689295 808.689295 0 0 0-17.519335 77.18107c11.919547 5.839778 26.59099 4.159842 36.526613-5.775781z" fill="#EACA44" p-id="14865"></path></svg>